<svg width="28" height="28" viewBox="0 0 28 28" fill="none" xmlns="http://www.w3.org/2000/svg">
<g clip-path="url(#clip0_306_616)">
<path d="M10.5617 26.7313C12.8037 26.7313 14.6234 24.8646 14.6234 22.5646V18.3979H10.5617C8.31964 18.3979 6.5 20.2646 6.5 22.5646C6.5 24.8646 8.31964 26.7313 10.5617 26.7313Z" fill="#0ACF83"/>
<path d="M6.5 14.2311C6.5 11.9311 8.31964 10.0645 10.5617 10.0645H14.6234V18.3978H10.5617C8.31964 18.3978 6.5 16.5311 6.5 14.2311Z" fill="#A259FF"/>
<path d="M6.5 5.89787C6.5 3.59787 8.31964 1.7312 10.5617 1.7312H14.6234V10.0645H10.5617C8.31964 10.0645 6.5 8.19787 6.5 5.89787Z" fill="#F24E1E"/>
<path d="M14.623 1.7312H18.6847C20.9268 1.7312 22.7464 3.59787 22.7464 5.89787C22.7464 8.19787 20.9268 10.0645 18.6847 10.0645H14.623V1.7312Z" fill="#FF7262"/>
<path d="M22.7464 14.2311C22.7464 16.5311 20.9268 18.3978 18.6847 18.3978C16.4427 18.3978 14.623 16.5311 14.623 14.2311C14.623 11.9311 16.4427 10.0645 18.6847 10.0645C20.9268 10.0645 22.7464 11.9311 22.7464 14.2311Z" fill="#1ABCFE"/>
</g>
<defs>
<clipPath id="clip0_306_616">
<rect width="25" height="25" fill="white" transform="translate(1.5 1.7312)"/>
</clipPath>
</defs>
</svg>
