<svg width="25" height="25" viewBox="0 0 25 25" fill="none" xmlns="http://www.w3.org/2000/svg">
<path d="M0 21.8367L11.9124 2.94116H19.3063V5.5701L9.03698 21.8367" fill="#FBBC04"/>
<path d="M19.3062 21.8367H11.9124V2.94116H19.3062V21.8367Z" fill="#1A73E8"/>
<path d="M24.6464 16.4965C24.6464 19.4459 22.2557 21.8366 19.3064 21.8366V11.1565C22.2557 11.1565 24.6464 13.5472 24.6464 16.4965Z" fill="#34A853"/>
<path d="M19.3063 21.8366C16.357 21.8366 13.9663 19.4459 13.9663 16.4965C13.9663 13.5472 16.357 11.1565 19.3063 11.1565V21.8366Z" fill="#0D652D"/>
<path d="M23.4141 7.04888C23.4141 9.31716 21.5755 11.1566 19.3064 11.1566V2.94116C21.5755 2.94116 23.4141 4.7806 23.4141 7.04888Z" fill="#1A73E8"/>
<path d="M19.3062 11.1566C17.0371 11.1566 15.1985 9.31716 15.1985 7.04888C15.1985 4.7806 17.0371 2.94116 19.3062 2.94116V11.1566Z" fill="#174EA6"/>
<path d="M0.410889 6.63811C0.410889 4.59657 2.0663 2.94116 4.10784 2.94116C6.14937 2.94116 7.80478 4.59657 7.80478 6.63811C7.80478 8.67965 6.14937 10.3351 4.10784 10.3351C2.0663 10.3351 0.410889 8.67965 0.410889 6.63811Z" fill="#EA4335"/>
</svg>
