<svg width="28" height="28" viewBox="0 0 28 28" fill="none" xmlns="http://www.w3.org/2000/svg">
<g clip-path="url(#clip0_306_692)">
<path d="M1.5 8.21609C1.5 4.78007 4.28544 1.99463 7.72146 1.99463H20.1644C23.6004 1.99463 26.3858 4.78007 26.3858 8.21609V20.659C26.3858 24.095 23.6004 26.8805 20.1644 26.8805H7.72146C4.28544 26.8805 1.5 24.095 1.5 20.659V8.21609Z" fill="#FDE050"/>
<path fill-rule="evenodd" clip-rule="evenodd" d="M18.0446 6.73853H15.7856L17.6681 10.0462L13.5265 6.73853H11.2674L13.3383 10.7813L9.00834 6.73853H6.74927L9.00834 11.8845L6.74927 22.1755H9.00834L13.3383 11.1494L11.2674 22.1755H13.5265L17.6681 10.4142L15.7856 22.1755H18.0446L22.1863 9.31105L18.0446 6.73853Z" fill="#1C1C1E"/>
</g>
<defs>
<clipPath id="clip0_306_692">
<rect width="25" height="25" fill="white" transform="translate(1.5 1.9375)"/>
</clipPath>
</defs>
</svg>
