<svg width="28" height="28" viewBox="0 0 28 28" fill="none" xmlns="http://www.w3.org/2000/svg">
<g clip-path="url(#clip0_306_625)">
<path d="M4.625 1.9375C2.89609 1.9375 1.5 3.33359 1.5 5.0625V11.4219H4.47813C5.61328 11.4219 6.52891 12.3305 6.52109 13.4648V13.4898C7.36797 13.3875 7.88906 13.1187 8.26719 12.7773C8.69844 12.3781 8.98828 11.8297 9.32578 11.2148C9.66328 10.6 10.0664 9.91719 10.7945 9.42109C11.3922 9.00938 12.2016 8.74922 13.2766 8.70469V8.23672C13.2766 7.09687 14.1922 6.17734 15.3305 6.17734H23.55C24.6898 6.17734 25.6094 7.09687 25.6094 8.23672V10.2586C25.6094 11.3938 24.6898 12.375 23.55 12.375H15.3305C14.1922 12.375 13.2766 11.3938 13.2766 10.2586V9.78672C12.3852 9.82344 11.8078 10.0312 11.4047 10.3117C10.9039 10.6531 10.5945 11.1461 10.2734 11.7359C9.94766 12.3266 9.61406 13.0102 8.99922 13.5758L8.91797 13.6445C12.1156 14.0758 13.5688 15.2641 14.8055 16.3469C16.25 17.6125 17.3813 18.7148 21.3648 18.7313V18.2508C21.3648 17.1109 22.2969 16.225 23.4367 16.225H26.5V5.06328C26.5 3.33437 25.1039 1.93828 23.375 1.93828L4.625 1.9375ZM15.3305 7.57266C14.9437 7.57266 14.6148 7.85391 14.6148 8.23594V10.2578C14.6148 10.6398 14.9437 10.9211 15.3305 10.9211H23.55C23.9195 10.9336 24.225 10.6281 24.2133 10.2578V8.23594C24.225 7.86484 23.9195 7.56016 23.55 7.57266H15.3305ZM1.5 12.8219V16.2242H4.47813C4.86875 16.2156 5.17812 15.8938 5.18203 15.5031V13.4812C5.18203 13.0992 4.86094 12.8219 4.47813 12.8219H1.5ZM6.52109 14.5594V15.5031C6.52969 16.6383 5.60938 17.5625 4.47813 17.5625H1.5V23.8125C1.5 25.5414 2.89609 26.9375 4.625 26.9375H23.375C25.1039 26.9375 26.5 25.5414 26.5 23.8125V22.3594H23.4367C22.2969 22.3594 21.3648 21.4117 21.3648 20.2727V19.8078C17.1531 19.7758 15.5344 18.4203 14.0938 17.1586C12.5961 15.8484 11.2289 14.6289 6.52109 14.5594ZM23.4367 17.5625C23.0578 17.5625 22.7523 17.8719 22.7609 18.25V20.2727C22.7609 20.6547 23.0508 20.9109 23.4367 20.9109H26.5V17.5617L23.4367 17.5625Z" fill="#8F0000"/>
</g>
<defs>
<clipPath id="clip0_306_625">
<rect width="25" height="25" fill="white" transform="translate(1.5 1.9375)"/>
</clipPath>
</defs>
</svg>
