<svg width="25" height="25" viewBox="0 0 25 25" fill="none" xmlns="http://www.w3.org/2000/svg">
<g clip-path="url(#clip0_311_797)">
<path d="M3.61467 19.8521V24.6159C6.09503 25.2024 8.63649 25.4991 11.1869 25.5C14.145 25.5 16.5622 24.9326 18.4185 23.8109C19.4969 23.2306 20.3908 22.3655 21.0004 21.3122C21.6101 20.2589 21.9114 19.059 21.8707 17.8463C21.9019 17.0261 21.7614 16.2084 21.4581 15.4443C21.1548 14.6803 20.6951 13.9863 20.1079 13.4058C19.113 12.4293 17.1365 11.301 14.1583 10.0012C12.1017 9.08405 10.833 8.47704 10.3856 8.19992C9.82468 7.83703 9.55758 7.40156 9.55758 6.84732C9.55758 5.34956 10.9131 4.61058 13.6508 4.61058C15.8204 4.65818 17.9613 5.11038 19.961 5.94339V1.37754C16.9161 0.783718 14.5857 0.5 12.9831 0.5C10.0717 0.5 7.69458 1.10702 5.89168 2.34745C4.05538 3.58788 3.12722 5.41555 3.12722 7.79084C3.1042 8.64276 3.26025 9.49014 3.58551 10.2794C3.91077 11.0687 4.39818 11.7828 5.01693 12.3765C5.98516 13.3134 8.08855 14.4153 11.287 15.7217C13.0833 16.4475 14.1984 17.0083 14.6191 17.424C14.8253 17.6004 14.9897 17.8196 15.1005 18.0659C15.2113 18.3122 15.2658 18.5797 15.2601 18.8492C15.2601 20.3799 13.8111 21.1387 10.8931 21.1387C8.78968 21.1387 6.35242 20.7098 3.61467 19.8521Z" fill="#009A9A"/>
</g>
<defs>
<clipPath id="clip0_311_797">
<rect width="25" height="25" fill="white"/>
</clipPath>
</defs>
</svg>
